<svg version="1.0" xmlns="http://www.w3.org/2000/svg" width="694.667" height="285.333" viewBox="0 0 521 214"><path d="M181 49.1c-2.5.5-7.7 2.5-11.7 4.4-27.6 13.6-34 54.1-12.4 77.7 11 12.1 30.1 17.6 45.2 13.2 7.3-2.1 11.3-4.6 18.2-11.3l5.7-5.5V145h13V49h-13v18l-4.2-4.6c-11-12-24.7-16.4-40.8-13.3zm26.9 15.4c6.8 3.7 12.4 10.1 15.3 17.4 3.1 7.9 3.1 22.3 0 30.2-2.9 7.2-8.5 13.7-15.3 17.4-5 2.8-6.2 3-15.4 3-8.4 0-10.7-.4-14.7-2.3-6.3-3.1-12.6-9.6-15.7-16.2-2.3-4.9-2.6-6.7-2.6-17 0-12.5 1.5-17.6 7.1-24.3 7.3-8.7 14.6-11.8 26.9-11.4 7.8.2 9.7.7 14.4 3.2zM43 97v48h14l.2-38.6.3-38.7L85 106.3l27.5 38.6h7.8l7.7.1V49h-14l-.2 37.4-.3 37.5L87 86.5 60.5 49.1h-8.7L43 49v48zM261 97v48h14l.2-38.5.3-38.5 17.6 38.3 17.6 38.2 7 .3 7 .3 18.1-39.3L361 66.5V145h14V48.9l-10.1.3-10.1.3-18 39.2c-10 21.6-18.4 39-18.7 38.8-.3-.2-8.7-17.9-18.6-39.4l-18-39-10.2-.1H261v48zM395.2 82.8l.3 33.8 3.8 7.6c7.6 15.5 22.6 23.8 40.7 22.5 13.3-.9 24.5-7 31.3-16.9 7-10.2 7.1-10.7 7.5-47.6l.3-33.2H465v30.3c0 34.9-.5 38-7.1 45.2-5.9 6.4-11.8 8.9-20.9 8.9-12.2 0-20.7-5.3-25.6-15.9-2.3-4.9-2.4-5.6-2.4-36.8V49h-14.1l.3 33.8z"/></svg>